<svg width="60" height="60" viewBox="0 0 60 60" fill="none" xmlns="http://www.w3.org/2000/svg">
<path d="M37.6782 29.1514L30.0004 39.8987L22.3227 29.1514L18.9805 30.8226C19.0243 30.9109 19.041 31.0069 19.1001 31.0896L28.4751 44.2146C28.8267 44.7071 29.3942 45 30.0004 45C30.6066 45 31.1742 44.7071 31.5257 44.2146L40.9007 31.0896C40.96 31.0069 40.9765 30.9109 41.0203 30.8226L37.6782 29.1514Z" fill="#2AA7FF"/>
<path d="M47.3182 31.8658L37.0517 26.7419C36.2151 27.7055 35.1988 28.4949 34.0359 29.0533C34.2135 29.3585 34.4488 29.633 34.7884 29.8021L45.6373 35.2166C47.5288 36.1706 48.7502 38.1481 48.7502 40.2556V52.4999H11.2502V40.2556C11.2502 38.1481 12.4716 36.1706 14.3556 35.2203L25.2118 29.8023C25.5516 29.6332 25.7867 29.3587 25.9643 29.0534C24.8014 28.4953 23.7851 27.7057 22.9485 26.7421L12.6746 31.8695C9.53062 33.4533 7.5 36.7456 7.5 40.2558V54.3751C7.5 55.4114 8.33869 56.2501 9.375 56.2501H50.6252C51.6615 56.2501 52.5002 55.4114 52.5002 54.3751V40.2558C52.5002 36.7456 50.4696 33.4533 47.3182 31.8658Z" fill="#2AA7FF"/>
<path d="M20.625 45H16.875C15.8387 45 15 44.1613 15 43.125C15 42.0887 15.8387 41.25 16.875 41.25H20.625C21.6613 41.25 22.5 42.0887 22.5 43.125C22.5 44.1613 21.6613 45 20.625 45Z" fill="#2AA7FF"/>
<path d="M39.3752 14.9364C32.3938 14.5166 29.4636 11.8102 29.4508 11.7994C29.0278 11.3728 28.4291 11.175 27.8248 11.2738C27.2297 11.3709 26.7171 11.748 26.4478 12.2863L25.1184 14.945C24.1699 14.8717 22.7051 14.7088 21.0369 14.3334C20.8967 14.3021 20.7624 14.3242 20.625 14.3244V18.0759C23.7546 18.734 26.1465 18.7498 26.25 18.7498C26.9604 18.7498 27.6086 18.3487 27.9272 17.7135L28.8317 15.9045C30.7671 17.016 34.1509 18.4039 39.2706 18.6896C39.3069 18.6909 39.3388 18.6739 39.375 18.6731L39.3752 14.9364Z" fill="#2AA7FF"/>
<path d="M30 31.875C23.7964 31.875 18.75 26.8286 18.75 20.625V15C18.75 8.79638 23.7964 3.75 30 3.75C36.2036 3.75 41.25 8.79638 41.25 15V20.625C41.25 26.8286 36.2036 31.875 30 31.875ZM30 7.5C25.8636 7.5 22.5 10.8636 22.5 15V20.625C22.5 24.7614 25.8636 28.125 30 28.125C34.1364 28.125 37.5 24.7614 37.5 20.625V15C37.5 10.8636 34.1364 7.5 30 7.5Z" fill="#2AA7FF"/>
</svg>
