<svg width="41" height="42" viewBox="0 0 41 42" fill="none" xmlns="http://www.w3.org/2000/svg">
<path d="M34.0741 0.555664H6.81482C3.0511 0.555664 0 3.60928 0 7.37612V34.6579C0 38.4248 3.0511 41.4784 6.81482 41.4784H34.0741C37.8378 41.4784 40.8889 38.4248 40.8889 34.6579V7.37612C40.8889 3.60928 37.8378 0.555664 34.0741 0.555664Z" fill="#2AA8FF"/>
<g clip-path="url(#clip0_87_24)">
<path d="M30.9039 20.6562C30.8245 20.3928 30.683 20.1523 30.4914 19.955C30.3453 19.797 30.1575 19.6836 29.9496 19.6277C30.0514 19.7886 30.1435 19.9742 30.2123 20.1722C30.2902 20.3748 30.3374 20.5889 30.3539 20.8144C30.3769 21.008 30.3769 21.2037 30.3539 21.3974C30.3111 21.2538 30.2452 21.1182 30.1586 20.9959C29.988 20.766 29.7606 20.5846 29.4986 20.4692C29.2081 20.3391 28.8798 20.3207 28.5766 20.4176C28.2734 20.5146 28.0166 20.72 27.8555 20.9945C27.7868 21.1072 27.7318 21.2291 27.6905 21.3602C26.0653 18.6542 23.1406 16.8626 19.7966 16.8626C19.6261 16.8626 19.457 16.8672 19.2893 16.8764C18.2518 16.878 17.2195 17.0228 16.2216 17.3067C16.1364 16.71 15.3526 15.5 11.7501 15.5L12.8501 18.9512C12.1583 19.5102 11.5768 20.1933 11.1355 20.9656L9.00013 21C9.00013 21 8.76638 26.5 10.3751 26.5H11.1176C11.6239 27.3562 12.3 28.0998 13.1045 28.6849L13.1251 32H14.6101C16.4114 32 17.2501 32 17.2501 30.9687V30.4325C18.6372 30.6881 20.0596 30.6843 21.4453 30.4215L21.3751 30.9687C21.3751 32 22.2276 32 24.0426 32H25.5001V28.7137C26.7886 27.819 27.7162 26.4945 28.1168 24.9779C28.1951 24.9407 28.2735 24.9449 28.3533 24.9449C28.433 24.9449 28.5114 24.9407 28.5898 24.9311C28.9349 24.8679 29.2498 24.7331 29.5234 24.542C29.8932 24.2803 30.1762 23.914 30.336 23.4901C30.3745 23.3618 30.4034 23.2279 30.4226 23.0886L30.424 23.0749C30.7279 22.7146 30.9355 22.2636 31.0001 21.7672C31.0551 21.3879 31.0212 21.001 30.9011 20.637L30.9039 20.6562ZM13.8264 20.6562C14.0999 20.6562 14.3622 20.7649 14.5556 20.9583C14.749 21.1517 14.8576 21.414 14.8576 21.6875C14.8576 21.961 14.749 22.2233 14.5556 22.4167C14.3622 22.6101 14.0999 22.7187 13.8264 22.7187C13.5529 22.7187 13.2906 22.6101 13.0972 22.4167C12.9038 22.2233 12.7951 21.961 12.7951 21.6875C12.7951 21.414 12.9038 21.1517 13.0972 20.9583C13.2906 20.7649 13.5529 20.6562 13.8264 20.6562ZM17.0851 19.625C16.9299 19.6754 16.7618 19.6688 16.6109 19.6066C16.46 19.5444 16.3361 19.4305 16.2615 19.2854C16.2381 19.2132 16.2303 19.1369 16.2386 19.0615C16.2468 18.9861 16.271 18.9134 16.3095 18.848C16.3479 18.7826 16.3998 18.7262 16.4617 18.6823C16.5236 18.6385 16.5941 18.6083 16.6685 18.5937C17.5728 18.3765 18.501 18.2749 19.4309 18.2912L19.5698 18.2899C20.4956 18.2917 21.3889 18.398 22.2496 18.6089C22.4229 18.6419 22.6099 18.8591 22.6099 19.1204C22.6095 19.1759 22.6007 19.2311 22.5838 19.284C22.5359 19.3733 22.468 19.4504 22.3855 19.5093C22.303 19.5682 22.2081 19.6073 22.108 19.6236H21.8976C21.1295 19.4387 20.342 19.3463 19.5519 19.3486H19.4295C18.5976 19.3486 17.7891 19.449 17.015 19.6387L17.0851 19.625ZM29.0476 23.6537C28.8613 23.7872 28.6491 23.8804 28.4248 23.9274L28.2501 23.9287V23.3237C28.477 23.4956 28.7644 23.5987 29.0751 23.5987H29.104L29.0476 23.6537ZM29.1576 22.7187C29.0298 22.7366 28.8996 22.7132 28.7861 22.6519C28.6725 22.5905 28.5816 22.4945 28.5265 22.3777C28.4627 22.2579 28.4294 22.1242 28.4297 21.9884C28.4299 21.8527 28.4636 21.7191 28.5279 21.5995C28.5929 21.5085 28.6891 21.4447 28.7983 21.4204C28.9074 21.396 29.0216 21.4128 29.1191 21.4675C29.2437 21.5153 29.3509 21.5998 29.4265 21.7097C29.5021 21.8197 29.5426 21.95 29.5426 22.0835C29.569 22.2742 29.5685 22.469 29.5413 22.6596C29.4135 22.6838 29.2835 22.6939 29.1535 22.6899L29.1576 22.7187ZM20.0001 14.125H18.6251V13.8912H18.9689V12.3925H18.6251L19.3814 11.6362H19.6564V13.8912H20.0001V14.125Z" fill="white"/>
<path d="M19.3125 11.0312C19.5834 11.0313 19.8517 11.0848 20.102 11.1886C20.3523 11.2923 20.5797 11.4444 20.7712 11.636C20.9627 11.8277 21.1146 12.0552 21.2182 12.3055C21.3218 12.5559 21.3751 12.8242 21.375 13.0951C21.3749 13.3661 21.3215 13.6343 21.2177 13.8846C21.1139 14.1349 20.9619 14.3623 20.7702 14.5538C20.5786 14.7453 20.3511 14.8972 20.1007 15.0008C19.8504 15.1044 19.5821 15.1577 19.3111 15.1576C18.7639 15.1574 18.2392 14.9399 17.8524 14.5528C17.4656 14.1658 17.2484 13.6409 17.2486 13.0938C17.2488 12.5466 17.4664 12.0219 17.8534 11.6351C18.2405 11.2483 18.7653 11.0311 19.3125 11.0312ZM19.3125 10C18.492 10 17.7051 10.3259 17.1249 10.9061C16.5447 11.4863 16.2188 12.2732 16.2188 13.0938C16.2188 13.9143 16.5447 14.7012 17.1249 15.2814C17.7051 15.8616 18.492 16.1875 19.3125 16.1875C20.133 16.1875 20.9199 15.8616 21.5001 15.2814C22.0803 14.7012 22.4062 13.9143 22.4062 13.0938C22.4062 12.2732 22.0803 11.4863 21.5001 10.9061C20.9199 10.3259 20.133 10 19.3125 10Z" fill="white"/>
</g>
<defs>
<clipPath id="clip0_87_24">
<rect width="22" height="22" fill="white" transform="translate(9 10)"/>
</clipPath>
</defs>
</svg>
