<svg width="69" height="69" viewBox="0 0 69 69" fill="none" xmlns="http://www.w3.org/2000/svg">
<path d="M11.5 15.0937C11.5 13.3781 12.1815 11.7328 13.3947 10.5197C14.6078 9.30653 16.2531 8.625 17.9688 8.625H45.2812C46.9969 8.625 48.6422 9.30653 49.8553 10.5197C51.0685 11.7328 51.75 13.3781 51.75 15.0937V40.25H63.25V51.0312C63.25 52.2583 63.0083 53.4733 62.5388 54.6069C62.0692 55.7406 61.3809 56.7706 60.5133 57.6383C59.6456 58.5059 58.6156 59.1942 57.4819 59.6637C56.3483 60.1333 55.1333 60.375 53.9062 60.375H37.2312C37.3271 59.9092 37.375 59.4301 37.375 58.9375V47.4375C37.375 45.5313 36.6177 43.7031 35.2698 42.3552C33.9219 41.0072 32.0937 40.25 30.1875 40.25H11.5V15.0937ZM51.75 56.0625H53.9062C55.2406 56.0625 56.5203 55.5324 57.4639 54.5889C58.4074 53.6453 58.9375 52.3656 58.9375 51.0312V44.5625H51.75V56.0625ZM21.5625 22.2812C21.5625 23.4715 22.5285 24.4375 23.7188 24.4375H39.5312C40.1031 24.4375 40.6516 24.2103 41.0559 23.8059C41.4603 23.4016 41.6875 22.8531 41.6875 22.2812C41.6875 21.7094 41.4603 21.1609 41.0559 20.7565C40.6516 20.3522 40.1031 20.125 39.5312 20.125H23.7188C23.1469 20.125 22.5984 20.3522 22.1941 20.7565C21.7897 21.1609 21.5625 21.7094 21.5625 22.2812ZM23.7188 31.625C23.1469 31.625 22.5984 31.8522 22.1941 32.2566C21.7897 32.6609 21.5625 33.2094 21.5625 33.7812C21.5625 34.3531 21.7897 34.9016 22.1941 35.3059C22.5984 35.7103 23.1469 35.9375 23.7188 35.9375H39.5312C40.1031 35.9375 40.6516 35.7103 41.0559 35.3059C41.4603 34.9016 41.6875 34.3531 41.6875 33.7812C41.6875 33.2094 41.4603 32.6609 41.0559 32.2566C40.6516 31.8522 40.1031 31.625 39.5312 31.625H23.7188ZM7.1875 43.125C6.04375 43.125 4.94685 43.5793 4.1381 44.3881C3.32935 45.1968 2.875 46.2938 2.875 47.4375V58.9375C2.875 60.0812 3.32935 61.1781 4.1381 61.9869C4.94685 62.7956 6.04375 63.25 7.1875 63.25H30.1875C31.3312 63.25 32.4281 62.7956 33.2369 61.9869C34.0456 61.1781 34.5 60.0812 34.5 58.9375V47.4375C34.5 46.2938 34.0456 45.1968 33.2369 44.3881C32.4281 43.5793 31.3312 43.125 30.1875 43.125H7.1875ZM28.75 46C28.75 46.7625 29.0529 47.4938 29.5921 48.0329C30.1312 48.5721 30.8625 48.875 31.625 48.875V51.75C30.1 51.75 28.6375 51.1442 27.5591 50.0659C26.4808 48.9875 25.875 47.525 25.875 46H28.75ZM25.875 60.375C25.875 58.85 26.4808 57.3875 27.5591 56.3091C28.6375 55.2308 30.1 54.625 31.625 54.625V57.5C30.8625 57.5 30.1312 57.8029 29.5921 58.3421C29.0529 58.8812 28.75 59.6125 28.75 60.375H25.875ZM5.75 48.875C6.5125 48.875 7.24377 48.5721 7.78293 48.0329C8.3221 47.4938 8.625 46.7625 8.625 46H11.5C11.5 47.525 10.8942 48.9875 9.81586 50.0659C8.73753 51.1442 7.27499 51.75 5.75 51.75V48.875ZM5.75 54.625C7.27499 54.625 8.73753 55.2308 9.81586 56.3091C10.8942 57.3875 11.5 58.85 11.5 60.375H8.625C8.625 59.6125 8.3221 58.8812 7.78293 58.3421C7.24377 57.8029 6.5125 57.5 5.75 57.5V54.625ZM18.6875 48.1562C20.0219 48.1562 21.3016 48.6863 22.2451 49.6299C23.1887 50.5734 23.7188 51.8531 23.7188 53.1875C23.7188 54.5219 23.1887 55.8016 22.2451 56.7451C21.3016 57.6887 20.0219 58.2187 18.6875 58.2187C17.3531 58.2187 16.0734 57.6887 15.1299 56.7451C14.1863 55.8016 13.6562 54.5219 13.6562 53.1875C13.6562 51.8531 14.1863 50.5734 15.1299 49.6299C16.0734 48.6863 17.3531 48.1562 18.6875 48.1562Z" fill="#2AA7FF"/>
</svg>
