<svg width="60" height="60" viewBox="0 0 60 60" fill="none" xmlns="http://www.w3.org/2000/svg">
<path d="M45 35C46.9565 35 48.8701 35.5739 50.5036 36.6507C52.1371 37.7275 53.4189 39.2599 54.1902 41.0579C54.9615 42.856 55.1884 44.8409 54.8427 46.7666C54.4971 48.6923 53.5941 50.4744 52.2457 51.892C50.8972 53.3097 49.1626 54.3006 47.2565 54.7421C45.3505 55.1836 43.3568 55.0562 41.5224 54.3758C39.688 53.6954 38.0935 52.4918 36.9363 50.9142C35.7792 49.3365 35.1103 47.4541 35.0125 45.5L35 45L35.0125 44.5C35.1408 41.9376 36.249 39.5225 38.108 37.7543C39.9669 35.9861 42.4344 35 45 35ZM41.7675 5.7325C42.1979 6.16298 42.4565 6.73573 42.4947 7.3433C42.5329 7.95086 42.3481 8.55149 41.975 9.0325L41.7675 9.2675L38.535 12.5H47.5C49.413 12.4999 51.2538 13.2308 52.6456 14.5432C54.0375 15.8556 54.8753 17.6503 54.9875 19.56L55 20V27.5C54.9993 28.1372 54.7553 28.7501 54.3179 29.2134C53.8805 29.6768 53.2826 29.9556 52.6465 29.9929C52.0104 30.0303 51.3841 29.8233 50.8954 29.4143C50.4068 29.0054 50.0928 28.4252 50.0175 27.7925L50 27.5V20C49.9999 19.3877 49.7751 18.7967 49.3682 18.3391C48.9613 17.8815 48.4006 17.5891 47.7925 17.5175L47.5 17.5H38.5375L41.7675 20.7325C42.2159 21.1824 42.4762 21.7861 42.4956 22.421C42.515 23.0558 42.292 23.6743 41.8719 24.1507C41.4518 24.6271 40.8661 24.9258 40.2338 24.986C39.6015 25.0462 38.97 24.8635 38.4675 24.475L38.2325 24.2675L30.7325 16.7675C30.4471 16.4886 30.2342 16.1442 30.1122 15.7643C29.9902 15.3844 29.9628 14.9804 30.0325 14.5875L30.1225 14.2225L30.2225 13.9625C30.3675 13.6442 30.5717 13.3658 30.835 13.1275L38.2325 5.7325C38.7013 5.26382 39.3371 5.00053 40 5.00053C40.6629 5.00053 41.2987 5.26382 41.7675 5.7325ZM7.5 30C8.11233 30.0001 8.70334 30.2249 9.16093 30.6318C9.61852 31.0387 9.91086 31.5994 9.9825 32.2075L10 32.5V40C10.0001 40.6123 10.2249 41.2033 10.6318 41.6609C11.0387 42.1185 11.5994 42.4109 12.2075 42.4825L12.5 42.5H21.4625L18.2325 39.2675C17.8021 38.837 17.5435 38.2643 17.5053 37.6567C17.4671 37.0491 17.6519 36.4485 18.025 35.9675L18.2325 35.7325C18.663 35.3021 19.2357 35.0435 19.8433 35.0053C20.4509 34.9671 21.0515 35.1519 21.5325 35.525L21.7675 35.7325L29.2675 43.2325C29.5529 43.5114 29.7658 43.8558 29.8878 44.2357C30.0098 44.6156 30.0372 45.0196 29.9675 45.4125L29.8775 45.7775L29.7775 46.0375C29.6339 46.3555 29.4252 46.64 29.165 46.8725L21.7675 54.2675C21.3176 54.7159 20.7139 54.9762 20.079 54.9956C19.4442 55.015 18.8257 54.792 18.3493 54.3719C17.8729 53.9518 17.5742 53.3661 17.514 52.7338C17.4538 52.1015 17.6365 51.47 18.025 50.9675L18.2325 50.7325L21.46 47.5H12.5C10.587 47.5001 8.74621 46.7692 7.35435 45.4568C5.96248 44.1444 5.12473 42.3497 5.0125 40.44L5 40V32.5C5 31.837 5.26339 31.2011 5.73223 30.7322C6.20107 30.2634 6.83696 30 7.5 30ZM15 5C16.9565 5 18.8701 5.57394 20.5036 6.65073C22.1372 7.72752 23.4189 9.25986 24.1902 11.0579C24.9615 12.856 25.1883 14.8409 24.8427 16.7666C24.4971 18.6923 23.5941 20.4744 22.2457 21.892C20.8972 23.3097 19.1626 24.3006 17.2565 24.7421C15.3505 25.1836 13.3568 25.0562 11.5224 24.3758C9.68797 23.6954 8.09346 22.4919 6.93634 20.9142C5.77922 19.3365 5.11033 17.4541 5.0125 15.5L5 15L5.0125 14.5C5.14078 11.9376 6.24901 9.52253 8.10797 7.75431C9.96693 5.98609 12.4344 5 15 5Z" fill="#2AA7FF"/>
</svg>
