<svg width="66" height="66" viewBox="0 0 66 66" fill="none" xmlns="http://www.w3.org/2000/svg">
<path d="M58.8775 31.845L34.1275 7.095C33.11 6.0775 31.7075 5.5 30.25 5.5H11C9.54131 5.5 8.14236 6.07946 7.11091 7.11091C6.07946 8.14236 5.5 9.54131 5.5 11V30.25C5.5 31.7075 6.0775 33.11 7.1225 34.1275L8.25 35.2275C10.725 33.7425 13.585 33 16.5 33C20.8761 33 25.0729 34.7384 28.1673 37.8327C31.2616 40.9271 33 45.1239 33 49.5C33 52.415 32.23 55.2475 30.745 57.75L31.845 58.85C32.8625 59.895 34.2925 60.5 35.75 60.5C37.2075 60.5 38.61 59.9225 39.6275 58.8775L58.8775 39.6275C59.9225 38.61 60.5 37.2075 60.5 35.75C60.5 34.2925 59.9225 32.89 58.8775 31.845ZM15.125 19.25C14.031 19.25 12.9818 18.8154 12.2082 18.0418C11.4346 17.2682 11 16.219 11 15.125C11 14.031 11.4346 12.9818 12.2082 12.2082C12.9818 11.4346 14.031 11 15.125 11C16.219 11 17.2682 11.4346 18.0418 12.2082C18.8154 12.9818 19.25 14.031 19.25 15.125C19.25 16.219 18.8154 17.2682 18.0418 18.0418C17.2682 18.8154 16.219 19.25 15.125 19.25ZM27.5 52.25H19.25V60.5H13.75V52.25H5.5V46.75H13.75V38.5H19.25V46.75H27.5V52.25Z" fill="#2AA7FF"/>
</svg>
