<svg width="67" height="67" viewBox="0 0 67 67" fill="none" xmlns="http://www.w3.org/2000/svg">
<path d="M16.75 27.9166H27.9167" stroke="#2AA7FF" stroke-width="3" stroke-linecap="round" stroke-linejoin="round"/>
<path d="M58.1588 30.7083H50.8949C45.9118 30.7083 41.875 34.4575 41.875 39.0833C41.875 43.709 45.9145 47.4583 50.8921 47.4583H58.1588C58.3933 47.4583 58.5077 47.4583 58.6055 47.4527C60.113 47.3605 61.3134 46.2467 61.4111 44.848C61.4167 44.7587 61.4167 44.6498 61.4167 44.4349V33.7316C61.4167 33.5167 61.4167 33.4078 61.4111 33.3185C61.3106 31.9198 60.113 30.806 58.6055 30.7138C58.5077 30.7083 58.3933 30.7083 58.1588 30.7083Z" stroke="#2AA7FF" stroke-width="3"/>
<path d="M58.527 30.7083C58.3092 25.4823 57.6113 22.2775 55.3528 20.0218C52.0838 16.75 46.8187 16.75 36.2913 16.75H27.9163C17.389 16.75 12.1239 16.75 8.85484 20.0218C5.5858 23.2937 5.58301 28.556 5.58301 39.0833C5.58301 49.6107 5.58301 54.8758 8.85484 58.1448C12.1267 61.4139 17.389 61.4167 27.9163 61.4167H36.2913C46.8187 61.4167 52.0838 61.4167 55.3528 58.1448C57.6113 55.8892 58.312 52.6843 58.527 47.4583" stroke="#2AA7FF" stroke-width="3"/>
<path d="M16.75 16.75L27.1769 9.83502C28.6436 8.88222 30.3551 8.37512 32.1042 8.37512C33.8532 8.37512 35.5647 8.88222 37.0315 9.83502L47.4583 16.75" stroke="#2AA7FF" stroke-width="3" stroke-linecap="round"/>
<path d="M50.2246 39.0833H50.2525" stroke="#2AA7FF" stroke-width="3" stroke-linecap="round" stroke-linejoin="round"/>
</svg>
