<svg width="24" height="24" viewBox="0 0 24 24" fill="none" xmlns="http://www.w3.org/2000/svg">
<g clip-path="url(#clip0_104_47)">
<path d="M12.946 18.1509V12.9119L21.209 8.19991L19.2 7.04791L12.946 10.6149V5.35991C12.946 5.00391 12.754 4.67091 12.446 4.49391L4.92202 0.176912C4.69777 0.0533063 4.44444 -0.0078187 4.1885 -7.88649e-05C3.93256 0.00766097 3.68339 0.0839817 3.46702 0.220912C3.25965 0.350709 3.08876 0.5312 2.97048 0.745355C2.85221 0.95951 2.79045 1.20027 2.79102 1.44491V16.2219C2.79041 16.472 2.85492 16.7179 2.97821 16.9354C3.1015 17.153 3.27932 17.3347 3.49416 17.4626C3.709 17.5906 3.95346 17.6604 4.20348 17.6652C4.45349 17.67 4.70044 17.6096 4.92002 17.4899L10.952 14.0499V18.7329C10.9523 18.909 10.999 19.0819 11.0875 19.2342C11.176 19.3864 11.3031 19.5126 11.456 19.5999L19.186 23.9999L21.196 22.8479L12.946 18.1509ZM10.953 5.93791V11.7519L4.78502 15.2699V2.39991L10.953 5.93791Z" fill="#2AA7FF"/>
</g>
<defs>
<clipPath id="clip0_104_47">
<rect width="24" height="24" fill="white"/>
</clipPath>
</defs>
</svg>
