<svg width="60" height="60" viewBox="0 0 60 60" fill="none" xmlns="http://www.w3.org/2000/svg">
<path fill-rule="evenodd" clip-rule="evenodd" d="M20 12.5C20 10.5109 20.7902 8.60322 22.1967 7.1967C23.6032 5.79018 25.5109 5 27.5 5H47.5C49.4891 5 51.3968 5.79018 52.8033 7.1967C54.2098 8.60322 55 10.5109 55 12.5V47.5C55 49.4891 54.2098 51.3968 52.8033 52.8033C51.3968 54.2098 49.4891 55 47.5 55H27.5C25.5109 55 23.6032 54.2098 22.1967 52.8033C20.7902 51.3968 20 49.4891 20 47.5V12.5ZM27.5 10C26.837 10 26.2011 10.2634 25.7322 10.7322C25.2634 11.2011 25 11.837 25 12.5V47.5C25 48.163 25.2634 48.7989 25.7322 49.2678C26.2011 49.7366 26.837 50 27.5 50H47.5C48.163 50 48.7989 49.7366 49.2678 49.2678C49.7366 48.7989 50 48.163 50 47.5V12.5C50 11.837 49.7366 11.2011 49.2678 10.7322C48.7989 10.2634 48.163 10 47.5 10H27.5Z" fill="#2AA7FF"/>
<path fill-rule="evenodd" clip-rule="evenodd" d="M5 27.5C5 25.5109 5.79018 23.6032 7.1967 22.1967C8.60322 20.7902 10.5109 20 12.5 20H23.75V25H12.5C11.837 25 11.2011 25.2634 10.7322 25.7322C10.2634 26.2011 10 26.837 10 27.5V47.5C10 48.163 10.2634 48.7989 10.7322 49.2678C11.2011 49.7366 11.837 50 12.5 50H36.25V55H12.5C10.5109 55 8.60322 54.2098 7.1967 52.8033C5.79018 51.3968 5 49.4891 5 47.5V27.5Z" fill="#2AA7FF"/>
<path fill-rule="evenodd" clip-rule="evenodd" d="M30 42.5C30 41.1739 30.5268 39.9021 31.4645 38.9645C32.4021 38.0268 33.6739 37.5 35 37.5H40C41.3261 37.5 42.5979 38.0268 43.5355 38.9645C44.4732 39.9021 45 41.1739 45 42.5V50H40V42.5H35V50H30V42.5Z" fill="#2AA7FF"/>
<path d="M30 15C30 14.337 30.2634 13.7011 30.7322 13.2322C31.2011 12.7634 31.837 12.5 32.5 12.5C33.163 12.5 33.7989 12.7634 34.2678 13.2322C34.7366 13.7011 35 14.337 35 15V17.5C35 18.163 34.7366 18.7989 34.2678 19.2678C33.7989 19.7366 33.163 20 32.5 20C31.837 20 31.2011 19.7366 30.7322 19.2678C30.2634 18.7989 30 18.163 30 17.5V15ZM30 27.5C30 26.837 30.2634 26.2011 30.7322 25.7322C31.2011 25.2634 31.837 25 32.5 25C33.163 25 33.7989 25.2634 34.2678 25.7322C34.7366 26.2011 35 26.837 35 27.5V30C35 30.663 34.7366 31.2989 34.2678 31.7678C33.7989 32.2366 33.163 32.5 32.5 32.5C31.837 32.5 31.2011 32.2366 30.7322 31.7678C30.2634 31.2989 30 30.663 30 30V27.5ZM12.5 37.5C12.5 36.837 12.7634 36.2011 13.2322 35.7322C13.7011 35.2634 14.337 35 15 35C15.663 35 16.2989 35.2634 16.7678 35.7322C17.2366 36.2011 17.5 36.837 17.5 37.5V40C17.5 40.663 17.2366 41.2989 16.7678 41.7678C16.2989 42.2366 15.663 42.5 15 42.5C14.337 42.5 13.7011 42.2366 13.2322 41.7678C12.7634 41.2989 12.5 40.663 12.5 40V37.5ZM40 15C40 14.337 40.2634 13.7011 40.7322 13.2322C41.2011 12.7634 41.837 12.5 42.5 12.5C43.163 12.5 43.7989 12.7634 44.2678 13.2322C44.7366 13.7011 45 14.337 45 15V17.5C45 18.163 44.7366 18.7989 44.2678 19.2678C43.7989 19.7366 43.163 20 42.5 20C41.837 20 41.2011 19.7366 40.7322 19.2678C40.2634 18.7989 40 18.163 40 17.5V15ZM40 27.5C40 26.837 40.2634 26.2011 40.7322 25.7322C41.2011 25.2634 41.837 25 42.5 25C43.163 25 43.7989 25.2634 44.2678 25.7322C44.7366 26.2011 45 26.837 45 27.5V30C45 30.663 44.7366 31.2989 44.2678 31.7678C43.7989 32.2366 43.163 32.5 42.5 32.5C41.837 32.5 41.2011 32.2366 40.7322 31.7678C40.2634 31.2989 40 30.663 40 30V27.5Z" fill="#2AA7FF"/>
</svg>
